<mxfile host="app.diagrams.net" modified="2024-03-31T16:08:18.376Z" agent="Mozilla/5.0 (Windows NT 10.0; Win64; x64) AppleWebKit/537.36 (KHTML, like Gecko) Chrome/123.0.0.0 Safari/537.36" etag="F-jDZuuEJd24j86Y9XXX" version="24.2.1" type="google">
  <diagram name="Page-1" id="DJFktMnbdMtadCi6BNw0">
    <mxGraphModel grid="1" page="1" gridSize="10" guides="1" tooltips="1" connect="1" arrows="1" fold="1" pageScale="1" pageWidth="827" pageHeight="1169" math="0" shadow="0">
      <root>
        <mxCell id="0" />
        <mxCell id="1" parent="0" />
        <mxCell id="FRcNBfA6DejPCzFfjj22-1" value="&lt;font style=&quot;font-size: 18px;&quot;&gt;Hệ thống&lt;/font&gt;" style="swimlane;whiteSpace=wrap;html=1;" vertex="1" parent="1">
          <mxGeometry x="330" y="270" width="1830" height="2960" as="geometry" />
        </mxCell>
        <mxCell id="FRcNBfA6DejPCzFfjj22-12" value="&lt;div&gt;&lt;br&gt;&lt;/div&gt;&lt;div&gt;&lt;span style=&quot;font-size: medium; background-color: initial;&quot;&gt;Hiển thị màn hình nhập thông tin&lt;/span&gt;&lt;br&gt;&lt;/div&gt;" style="html=1;align=center;verticalAlign=top;rounded=1;absoluteArcSize=1;arcSize=10;dashed=0;whiteSpace=wrap;fillColor=#d5e8d4;strokeColor=#82b366;" vertex="1" parent="FRcNBfA6DejPCzFfjj22-1">
          <mxGeometry x="84" y="80" width="160" height="90" as="geometry" />
        </mxCell>
        <mxCell id="FRcNBfA6DejPCzFfjj22-23" style="edgeStyle=orthogonalEdgeStyle;rounded=0;orthogonalLoop=1;jettySize=auto;html=1;exitX=0.5;exitY=1;exitDx=0;exitDy=0;entryX=0.5;entryY=0;entryDx=0;entryDy=0;" edge="1" parent="FRcNBfA6DejPCzFfjj22-1" source="FRcNBfA6DejPCzFfjj22-21" target="FRcNBfA6DejPCzFfjj22-15">
          <mxGeometry relative="1" as="geometry" />
        </mxCell>
        <mxCell id="FRcNBfA6DejPCzFfjj22-21" value="&lt;div&gt;&lt;br&gt;&lt;/div&gt;&lt;div&gt;&lt;font size=&quot;3&quot;&gt;&lt;br&gt;&lt;/font&gt;&lt;/div&gt;&lt;div&gt;&lt;font size=&quot;3&quot;&gt;Kiểm tra tên món&lt;/font&gt;&lt;/div&gt;" style="html=1;align=center;verticalAlign=top;rounded=1;absoluteArcSize=1;arcSize=10;dashed=0;whiteSpace=wrap;fillColor=#d5e8d4;strokeColor=#82b366;" vertex="1" parent="FRcNBfA6DejPCzFfjj22-1">
          <mxGeometry x="730" y="314" width="160" height="90" as="geometry" />
        </mxCell>
        <mxCell id="FRcNBfA6DejPCzFfjj22-28" style="edgeStyle=orthogonalEdgeStyle;rounded=0;orthogonalLoop=1;jettySize=auto;html=1;exitX=1;exitY=0.5;exitDx=0;exitDy=0;entryX=0;entryY=0.5;entryDx=0;entryDy=0;" edge="1" parent="FRcNBfA6DejPCzFfjj22-1" source="FRcNBfA6DejPCzFfjj22-15" target="FRcNBfA6DejPCzFfjj22-27">
          <mxGeometry relative="1" as="geometry" />
        </mxCell>
        <mxCell id="FRcNBfA6DejPCzFfjj22-30" value="&lt;font color=&quot;#ff0000&quot; style=&quot;font-size: 18px;&quot;&gt;Đã có món tồn tại cùng tên&lt;/font&gt;" style="edgeLabel;html=1;align=center;verticalAlign=middle;resizable=0;points=[];" connectable="0" vertex="1" parent="FRcNBfA6DejPCzFfjj22-28">
          <mxGeometry x="-0.3393" y="1" relative="1" as="geometry">
            <mxPoint as="offset" />
          </mxGeometry>
        </mxCell>
        <mxCell id="FRcNBfA6DejPCzFfjj22-15" value="" style="rhombus;fillColor=#fff2cc;strokeColor=#d6b656;" vertex="1" parent="FRcNBfA6DejPCzFfjj22-1">
          <mxGeometry x="777.5" y="460" width="65" height="55" as="geometry" />
        </mxCell>
        <mxCell id="FRcNBfA6DejPCzFfjj22-33" style="edgeStyle=orthogonalEdgeStyle;rounded=0;orthogonalLoop=1;jettySize=auto;html=1;exitX=1;exitY=0.5;exitDx=0;exitDy=0;entryX=1;entryY=0.5;entryDx=0;entryDy=0;" edge="1" parent="FRcNBfA6DejPCzFfjj22-1" source="FRcNBfA6DejPCzFfjj22-27" target="FRcNBfA6DejPCzFfjj22-31">
          <mxGeometry relative="1" as="geometry" />
        </mxCell>
        <mxCell id="FRcNBfA6DejPCzFfjj22-27" value="&lt;div&gt;&lt;br&gt;&lt;/div&gt;&lt;div&gt;&lt;font style=&quot;background-color: initial;&quot; size=&quot;3&quot;&gt;Hiển thi thông báo &quot;&amp;nbsp;&lt;/font&gt;&lt;span style=&quot;background-color: initial;&quot;&gt;&lt;font size=&quot;3&quot;&gt;Tên món đã tồn tại &quot;&lt;/font&gt;&lt;/span&gt;&lt;br&gt;&lt;/div&gt;" style="html=1;align=center;verticalAlign=top;rounded=1;absoluteArcSize=1;arcSize=10;dashed=0;whiteSpace=wrap;fillColor=#d5e8d4;strokeColor=#82b366;" vertex="1" parent="FRcNBfA6DejPCzFfjj22-1">
          <mxGeometry x="1500" y="450" width="160" height="90" as="geometry" />
        </mxCell>
        <mxCell id="FRcNBfA6DejPCzFfjj22-31" value="" style="ellipse;html=1;shape=endState;fillColor=#000000;strokeColor=#ff0000;" vertex="1" parent="FRcNBfA6DejPCzFfjj22-1">
          <mxGeometry x="1670" y="2820" width="50" height="50" as="geometry" />
        </mxCell>
        <mxCell id="FRcNBfA6DejPCzFfjj22-37" style="edgeStyle=orthogonalEdgeStyle;rounded=0;orthogonalLoop=1;jettySize=auto;html=1;exitX=0.5;exitY=1;exitDx=0;exitDy=0;entryX=0.5;entryY=0;entryDx=0;entryDy=0;" edge="1" parent="FRcNBfA6DejPCzFfjj22-1" source="FRcNBfA6DejPCzFfjj22-35" target="FRcNBfA6DejPCzFfjj22-36">
          <mxGeometry relative="1" as="geometry" />
        </mxCell>
        <mxCell id="FRcNBfA6DejPCzFfjj22-35" value="&lt;div&gt;&lt;br&gt;&lt;/div&gt;&lt;div&gt;&lt;font size=&quot;3&quot;&gt;&lt;br&gt;&lt;/font&gt;&lt;/div&gt;&lt;div&gt;&lt;font size=&quot;3&quot;&gt;Kiểm tra số lượng&lt;/font&gt;&lt;/div&gt;" style="html=1;align=center;verticalAlign=top;rounded=1;absoluteArcSize=1;arcSize=10;dashed=0;whiteSpace=wrap;fillColor=#d5e8d4;strokeColor=#82b366;" vertex="1" parent="FRcNBfA6DejPCzFfjj22-1">
          <mxGeometry x="620" y="660" width="160" height="90" as="geometry" />
        </mxCell>
        <mxCell id="FRcNBfA6DejPCzFfjj22-36" value="" style="rhombus;fillColor=#fff2cc;strokeColor=#d6b656;" vertex="1" parent="FRcNBfA6DejPCzFfjj22-1">
          <mxGeometry x="667.5" y="870" width="65" height="55" as="geometry" />
        </mxCell>
        <mxCell id="FRcNBfA6DejPCzFfjj22-46" style="edgeStyle=orthogonalEdgeStyle;rounded=0;orthogonalLoop=1;jettySize=auto;html=1;exitX=1;exitY=0.5;exitDx=0;exitDy=0;entryX=1;entryY=0;entryDx=0;entryDy=0;" edge="1" parent="FRcNBfA6DejPCzFfjj22-1" source="FRcNBfA6DejPCzFfjj22-39" target="FRcNBfA6DejPCzFfjj22-31">
          <mxGeometry relative="1" as="geometry" />
        </mxCell>
        <mxCell id="FRcNBfA6DejPCzFfjj22-39" value="&lt;div&gt;&lt;br&gt;&lt;/div&gt;&lt;div&gt;&lt;span style=&quot;font-size: medium; background-color: initial;&quot;&gt;Hiển thị thông báo &quot; Số lượng không hợp lệ &quot;&lt;/span&gt;&lt;br&gt;&lt;/div&gt;" style="html=1;align=center;verticalAlign=top;rounded=1;absoluteArcSize=1;arcSize=10;dashed=0;whiteSpace=wrap;fillColor=#d5e8d4;strokeColor=#82b366;" vertex="1" parent="FRcNBfA6DejPCzFfjj22-1">
          <mxGeometry x="880" y="1060" width="160" height="90" as="geometry" />
        </mxCell>
        <mxCell id="FRcNBfA6DejPCzFfjj22-42" style="edgeStyle=orthogonalEdgeStyle;rounded=0;orthogonalLoop=1;jettySize=auto;html=1;exitX=1;exitY=0.5;exitDx=0;exitDy=0;" edge="1" parent="FRcNBfA6DejPCzFfjj22-1" source="FRcNBfA6DejPCzFfjj22-36" target="FRcNBfA6DejPCzFfjj22-39">
          <mxGeometry relative="1" as="geometry" />
        </mxCell>
        <mxCell id="FRcNBfA6DejPCzFfjj22-45" value="&lt;font color=&quot;#ff0000&quot; style=&quot;font-size: 18px;&quot;&gt;Số lượng món &amp;gt; 0&lt;/font&gt;" style="edgeLabel;html=1;align=center;verticalAlign=middle;resizable=0;points=[];" connectable="0" vertex="1" parent="FRcNBfA6DejPCzFfjj22-42">
          <mxGeometry x="-0.4357" y="-2" relative="1" as="geometry">
            <mxPoint as="offset" />
          </mxGeometry>
        </mxCell>
        <mxCell id="FRcNBfA6DejPCzFfjj22-53" style="edgeStyle=orthogonalEdgeStyle;rounded=0;orthogonalLoop=1;jettySize=auto;html=1;exitX=0.5;exitY=1;exitDx=0;exitDy=0;entryX=0.5;entryY=0;entryDx=0;entryDy=0;" edge="1" parent="FRcNBfA6DejPCzFfjj22-1" source="FRcNBfA6DejPCzFfjj22-51" target="FRcNBfA6DejPCzFfjj22-52">
          <mxGeometry relative="1" as="geometry" />
        </mxCell>
        <mxCell id="FRcNBfA6DejPCzFfjj22-51" value="&lt;div&gt;&lt;br&gt;&lt;/div&gt;&lt;div&gt;&lt;font size=&quot;3&quot;&gt;&lt;br&gt;&lt;/font&gt;&lt;/div&gt;&lt;div&gt;&lt;font size=&quot;3&quot;&gt;Kiểm tra giá tiền&lt;/font&gt;&lt;/div&gt;" style="html=1;align=center;verticalAlign=top;rounded=1;absoluteArcSize=1;arcSize=10;dashed=0;whiteSpace=wrap;fillColor=#d5e8d4;strokeColor=#82b366;" vertex="1" parent="FRcNBfA6DejPCzFfjj22-1">
          <mxGeometry x="320" y="1250" width="160" height="90" as="geometry" />
        </mxCell>
        <mxCell id="FRcNBfA6DejPCzFfjj22-55" style="edgeStyle=orthogonalEdgeStyle;rounded=0;orthogonalLoop=1;jettySize=auto;html=1;exitX=1;exitY=0.5;exitDx=0;exitDy=0;" edge="1" parent="FRcNBfA6DejPCzFfjj22-1" source="FRcNBfA6DejPCzFfjj22-52" target="FRcNBfA6DejPCzFfjj22-54">
          <mxGeometry relative="1" as="geometry" />
        </mxCell>
        <mxCell id="FRcNBfA6DejPCzFfjj22-57" value="Text" style="edgeLabel;html=1;align=center;verticalAlign=middle;resizable=0;points=[];" connectable="0" vertex="1" parent="FRcNBfA6DejPCzFfjj22-55">
          <mxGeometry x="-0.3965" y="4" relative="1" as="geometry">
            <mxPoint x="-1" as="offset" />
          </mxGeometry>
        </mxCell>
        <mxCell id="FRcNBfA6DejPCzFfjj22-58" value="&lt;font color=&quot;#ff0000&quot; style=&quot;font-size: 18px;&quot;&gt;Giá &amp;lt;= 0&lt;/font&gt;" style="edgeLabel;html=1;align=center;verticalAlign=middle;resizable=0;points=[];" connectable="0" vertex="1" parent="FRcNBfA6DejPCzFfjj22-55">
          <mxGeometry x="-0.4089" y="9" relative="1" as="geometry">
            <mxPoint x="-1" as="offset" />
          </mxGeometry>
        </mxCell>
        <mxCell id="FRcNBfA6DejPCzFfjj22-52" value="" style="rhombus;fillColor=#fff2cc;strokeColor=#d6b656;" vertex="1" parent="FRcNBfA6DejPCzFfjj22-1">
          <mxGeometry x="367.5" y="1500" width="65" height="55" as="geometry" />
        </mxCell>
        <mxCell id="FRcNBfA6DejPCzFfjj22-56" style="edgeStyle=orthogonalEdgeStyle;rounded=0;orthogonalLoop=1;jettySize=auto;html=1;exitX=1;exitY=0.5;exitDx=0;exitDy=0;entryX=0.5;entryY=0;entryDx=0;entryDy=0;" edge="1" parent="FRcNBfA6DejPCzFfjj22-1" source="FRcNBfA6DejPCzFfjj22-54" target="FRcNBfA6DejPCzFfjj22-31">
          <mxGeometry relative="1" as="geometry" />
        </mxCell>
        <mxCell id="FRcNBfA6DejPCzFfjj22-54" value="&lt;div&gt;&lt;br&gt;&lt;/div&gt;&lt;div&gt;&lt;span style=&quot;font-size: medium; background-color: initial;&quot;&gt;&amp;nbsp;Hiển thị thông báo&amp;nbsp;&lt;/span&gt;&lt;span style=&quot;background-color: initial;&quot;&gt;&lt;font size=&quot;3&quot;&gt;“ Giá không hợp lệ “&lt;/font&gt;&lt;/span&gt;&lt;br&gt;&lt;/div&gt;" style="html=1;align=center;verticalAlign=top;rounded=1;absoluteArcSize=1;arcSize=10;dashed=0;whiteSpace=wrap;fillColor=#d5e8d4;strokeColor=#82b366;" vertex="1" parent="FRcNBfA6DejPCzFfjj22-1">
          <mxGeometry x="700" y="1484" width="160" height="90" as="geometry" />
        </mxCell>
        <mxCell id="FRcNBfA6DejPCzFfjj22-63" value="&lt;div&gt;&lt;br&gt;&lt;/div&gt;&lt;div&gt;&lt;font size=&quot;3&quot;&gt;&lt;br&gt;&lt;/font&gt;&lt;/div&gt;&lt;div&gt;&lt;font size=&quot;3&quot;&gt;Hiển thị hình ảnh lên&lt;/font&gt;&lt;/div&gt;" style="html=1;align=center;verticalAlign=top;rounded=1;absoluteArcSize=1;arcSize=10;dashed=0;whiteSpace=wrap;fillColor=#d5e8d4;strokeColor=#82b366;" vertex="1" parent="FRcNBfA6DejPCzFfjj22-1">
          <mxGeometry x="272.5" y="1660" width="160" height="90" as="geometry" />
        </mxCell>
        <mxCell id="FRcNBfA6DejPCzFfjj22-71" style="edgeStyle=orthogonalEdgeStyle;rounded=0;orthogonalLoop=1;jettySize=auto;html=1;exitX=1;exitY=0.5;exitDx=0;exitDy=0;entryX=0.5;entryY=0;entryDx=0;entryDy=0;" edge="1" parent="FRcNBfA6DejPCzFfjj22-1" source="FRcNBfA6DejPCzFfjj22-67" target="FRcNBfA6DejPCzFfjj22-70">
          <mxGeometry relative="1" as="geometry" />
        </mxCell>
        <mxCell id="FRcNBfA6DejPCzFfjj22-72" value="&lt;font color=&quot;#ff0000&quot;&gt;&lt;span style=&quot;font-size: 18px;&quot;&gt;Điền thiếu thông tin ngoại trừ mô tả&lt;/span&gt;&lt;/font&gt;" style="edgeLabel;html=1;align=center;verticalAlign=middle;resizable=0;points=[];" connectable="0" vertex="1" parent="FRcNBfA6DejPCzFfjj22-71">
          <mxGeometry x="-0.2382" y="-2" relative="1" as="geometry">
            <mxPoint x="-1" as="offset" />
          </mxGeometry>
        </mxCell>
        <mxCell id="FRcNBfA6DejPCzFfjj22-76" style="edgeStyle=orthogonalEdgeStyle;rounded=0;orthogonalLoop=1;jettySize=auto;html=1;exitX=0;exitY=0.5;exitDx=0;exitDy=0;entryX=0.5;entryY=0;entryDx=0;entryDy=0;" edge="1" parent="FRcNBfA6DejPCzFfjj22-1" source="FRcNBfA6DejPCzFfjj22-67" target="FRcNBfA6DejPCzFfjj22-75">
          <mxGeometry relative="1" as="geometry" />
        </mxCell>
        <mxCell id="FRcNBfA6DejPCzFfjj22-77" value="&lt;font color=&quot;#ff0000&quot; style=&quot;font-size: 18px;&quot;&gt;Đã điền đầy đủ thông tin&lt;/font&gt;" style="edgeLabel;html=1;align=center;verticalAlign=middle;resizable=0;points=[];" connectable="0" vertex="1" parent="FRcNBfA6DejPCzFfjj22-76">
          <mxGeometry x="-0.1147" relative="1" as="geometry">
            <mxPoint as="offset" />
          </mxGeometry>
        </mxCell>
        <mxCell id="FRcNBfA6DejPCzFfjj22-67" value="" style="rhombus;fillColor=#fff2cc;strokeColor=#d6b656;" vertex="1" parent="FRcNBfA6DejPCzFfjj22-1">
          <mxGeometry x="780" y="2310" width="65" height="55" as="geometry" />
        </mxCell>
        <mxCell id="FRcNBfA6DejPCzFfjj22-69" style="edgeStyle=orthogonalEdgeStyle;rounded=0;orthogonalLoop=1;jettySize=auto;html=1;exitX=0.5;exitY=1;exitDx=0;exitDy=0;entryX=0.5;entryY=0;entryDx=0;entryDy=0;" edge="1" parent="FRcNBfA6DejPCzFfjj22-1" source="FRcNBfA6DejPCzFfjj22-68" target="FRcNBfA6DejPCzFfjj22-67">
          <mxGeometry relative="1" as="geometry" />
        </mxCell>
        <mxCell id="FRcNBfA6DejPCzFfjj22-68" value="&lt;div&gt;&lt;br&gt;&lt;/div&gt;&lt;div&gt;&lt;font size=&quot;3&quot;&gt;&lt;br&gt;&lt;/font&gt;&lt;/div&gt;&lt;div&gt;&lt;font size=&quot;3&quot;&gt;Kiểm tra thông tin&lt;/font&gt;&lt;/div&gt;" style="html=1;align=center;verticalAlign=top;rounded=1;absoluteArcSize=1;arcSize=10;dashed=0;whiteSpace=wrap;fillColor=#d5e8d4;strokeColor=#82b366;" vertex="1" parent="FRcNBfA6DejPCzFfjj22-1">
          <mxGeometry x="732.5" y="2050" width="160" height="90" as="geometry" />
        </mxCell>
        <mxCell id="FRcNBfA6DejPCzFfjj22-73" style="edgeStyle=orthogonalEdgeStyle;rounded=0;orthogonalLoop=1;jettySize=auto;html=1;exitX=1;exitY=0.5;exitDx=0;exitDy=0;entryX=0;entryY=0;entryDx=0;entryDy=0;" edge="1" parent="FRcNBfA6DejPCzFfjj22-1" source="FRcNBfA6DejPCzFfjj22-70" target="FRcNBfA6DejPCzFfjj22-31">
          <mxGeometry relative="1" as="geometry" />
        </mxCell>
        <mxCell id="FRcNBfA6DejPCzFfjj22-70" value="&lt;div&gt;&lt;br&gt;&lt;/div&gt;&lt;div&gt;&lt;span style=&quot;font-size: medium; background-color: initial;&quot;&gt;Hiển thị thông báo &quot; Chưa điền đẩy đủ thông tin &quot;&lt;/span&gt;&lt;br&gt;&lt;/div&gt;" style="html=1;align=center;verticalAlign=top;rounded=1;absoluteArcSize=1;arcSize=10;dashed=0;whiteSpace=wrap;fillColor=#d5e8d4;strokeColor=#82b366;" vertex="1" parent="FRcNBfA6DejPCzFfjj22-1">
          <mxGeometry x="1300" y="2490" width="160" height="90" as="geometry" />
        </mxCell>
        <mxCell id="FRcNBfA6DejPCzFfjj22-79" style="edgeStyle=orthogonalEdgeStyle;rounded=0;orthogonalLoop=1;jettySize=auto;html=1;exitX=0.5;exitY=1;exitDx=0;exitDy=0;entryX=0.5;entryY=0;entryDx=0;entryDy=0;" edge="1" parent="FRcNBfA6DejPCzFfjj22-1" source="FRcNBfA6DejPCzFfjj22-75" target="FRcNBfA6DejPCzFfjj22-78">
          <mxGeometry relative="1" as="geometry" />
        </mxCell>
        <mxCell id="FRcNBfA6DejPCzFfjj22-75" value="&lt;div&gt;&lt;br&gt;&lt;/div&gt;&lt;div&gt;&lt;font size=&quot;3&quot;&gt;&lt;br&gt;&lt;/font&gt;&lt;/div&gt;&lt;div&gt;&lt;font size=&quot;3&quot;&gt;Lưu trữ thông tin&amp;nbsp;&lt;/font&gt;&lt;/div&gt;" style="html=1;align=center;verticalAlign=top;rounded=1;absoluteArcSize=1;arcSize=10;dashed=0;whiteSpace=wrap;fillColor=#d5e8d4;strokeColor=#82b366;" vertex="1" parent="FRcNBfA6DejPCzFfjj22-1">
          <mxGeometry x="350" y="2480" width="160" height="90" as="geometry" />
        </mxCell>
        <mxCell id="FRcNBfA6DejPCzFfjj22-81" style="edgeStyle=orthogonalEdgeStyle;rounded=0;orthogonalLoop=1;jettySize=auto;html=1;exitX=0.5;exitY=1;exitDx=0;exitDy=0;entryX=0;entryY=0.5;entryDx=0;entryDy=0;" edge="1" parent="FRcNBfA6DejPCzFfjj22-1" source="FRcNBfA6DejPCzFfjj22-78" target="FRcNBfA6DejPCzFfjj22-31">
          <mxGeometry relative="1" as="geometry" />
        </mxCell>
        <mxCell id="FRcNBfA6DejPCzFfjj22-78" value="&lt;div&gt;&lt;br&gt;&lt;/div&gt;&lt;div&gt;&lt;font size=&quot;3&quot;&gt;&lt;br&gt;&lt;/font&gt;&lt;/div&gt;&lt;div&gt;&lt;font size=&quot;3&quot;&gt;Hiển thị menu mới&lt;/font&gt;&lt;/div&gt;&lt;div&gt;&lt;font size=&quot;3&quot;&gt;&lt;br&gt;&lt;/font&gt;&lt;/div&gt;&lt;div&gt;&lt;font size=&quot;3&quot;&gt;&lt;br&gt;&lt;/font&gt;&lt;/div&gt;&lt;div&gt;&lt;font size=&quot;3&quot;&gt;&lt;br&gt;&lt;/font&gt;&lt;/div&gt;&lt;div&gt;&lt;font size=&quot;3&quot;&gt;&lt;br&gt;&lt;/font&gt;&lt;/div&gt;&lt;div&gt;&lt;font size=&quot;3&quot;&gt;&lt;br&gt;&lt;/font&gt;&lt;/div&gt;&lt;div&gt;&lt;font size=&quot;3&quot;&gt;&lt;br&gt;&lt;/font&gt;&lt;/div&gt;" style="html=1;align=center;verticalAlign=top;rounded=1;absoluteArcSize=1;arcSize=10;dashed=0;whiteSpace=wrap;fillColor=#d5e8d4;strokeColor=#82b366;" vertex="1" parent="FRcNBfA6DejPCzFfjj22-1">
          <mxGeometry x="350" y="2653" width="160" height="90" as="geometry" />
        </mxCell>
        <mxCell id="FRcNBfA6DejPCzFfjj22-3" value="SS" style="swimlane;whiteSpace=wrap;html=1;" vertex="1" parent="1">
          <mxGeometry x="-670" y="270" width="1000" height="2970" as="geometry" />
        </mxCell>
        <mxCell id="FRcNBfA6DejPCzFfjj22-5" value="" style="ellipse;html=1;shape=startState;fillColor=#000000;strokeColor=#ff0000;" vertex="1" parent="FRcNBfA6DejPCzFfjj22-3">
          <mxGeometry x="40" y="100" width="50" height="50" as="geometry" />
        </mxCell>
        <mxCell id="FRcNBfA6DejPCzFfjj22-6" value="" style="edgeStyle=orthogonalEdgeStyle;html=1;verticalAlign=bottom;endArrow=open;endSize=8;strokeColor=#ff0000;rounded=0;entryX=0;entryY=0.5;entryDx=0;entryDy=0;" edge="1" parent="FRcNBfA6DejPCzFfjj22-3" source="FRcNBfA6DejPCzFfjj22-5" target="FRcNBfA6DejPCzFfjj22-11">
          <mxGeometry relative="1" as="geometry">
            <mxPoint x="65" y="160" as="targetPoint" />
          </mxGeometry>
        </mxCell>
        <mxCell id="FRcNBfA6DejPCzFfjj22-11" value="&lt;div&gt;&lt;br&gt;&lt;/div&gt;&lt;div&gt;&lt;span style=&quot;background-color: initial;&quot;&gt;&lt;font size=&quot;3&quot;&gt;Chọn chức năng thêm món&lt;/font&gt;&lt;/span&gt;&lt;br&gt;&lt;/div&gt;" style="html=1;align=center;verticalAlign=top;rounded=1;absoluteArcSize=1;arcSize=10;dashed=0;whiteSpace=wrap;fillColor=#d5e8d4;strokeColor=#82b366;" vertex="1" parent="FRcNBfA6DejPCzFfjj22-3">
          <mxGeometry x="160" y="80" width="160" height="90" as="geometry" />
        </mxCell>
        <mxCell id="FRcNBfA6DejPCzFfjj22-16" value="&lt;div&gt;&lt;br&gt;&lt;/div&gt;&lt;div&gt;&lt;font size=&quot;3&quot;&gt;&lt;br&gt;&lt;/font&gt;&lt;/div&gt;&lt;div&gt;&lt;font size=&quot;3&quot;&gt;Nhập tên món&lt;/font&gt;&lt;/div&gt;" style="html=1;align=center;verticalAlign=top;rounded=1;absoluteArcSize=1;arcSize=10;dashed=0;whiteSpace=wrap;fillColor=#d5e8d4;strokeColor=#82b366;" vertex="1" parent="FRcNBfA6DejPCzFfjj22-3">
          <mxGeometry x="280" y="240" width="160" height="90" as="geometry" />
        </mxCell>
        <mxCell id="FRcNBfA6DejPCzFfjj22-18" value="&lt;div&gt;&lt;br&gt;&lt;/div&gt;&lt;div&gt;&lt;font size=&quot;3&quot;&gt;&lt;br&gt;&lt;/font&gt;&lt;/div&gt;&lt;div&gt;&lt;font size=&quot;3&quot;&gt;Nhập số lượng món&lt;/font&gt;&lt;/div&gt;" style="html=1;align=center;verticalAlign=top;rounded=1;absoluteArcSize=1;arcSize=10;dashed=0;whiteSpace=wrap;fillColor=#d5e8d4;strokeColor=#82b366;" vertex="1" parent="FRcNBfA6DejPCzFfjj22-3">
          <mxGeometry x="280" y="525" width="160" height="90" as="geometry" />
        </mxCell>
        <mxCell id="FRcNBfA6DejPCzFfjj22-48" style="edgeStyle=orthogonalEdgeStyle;rounded=0;orthogonalLoop=1;jettySize=auto;html=1;exitX=0.5;exitY=1;exitDx=0;exitDy=0;entryX=0.5;entryY=0;entryDx=0;entryDy=0;" edge="1" parent="FRcNBfA6DejPCzFfjj22-3" source="FRcNBfA6DejPCzFfjj22-47" target="FRcNBfA6DejPCzFfjj22-49">
          <mxGeometry relative="1" as="geometry">
            <mxPoint x="256.66666666666697" y="1270" as="targetPoint" />
          </mxGeometry>
        </mxCell>
        <mxCell id="FRcNBfA6DejPCzFfjj22-47" value="&lt;div&gt;&lt;br&gt;&lt;/div&gt;&lt;div&gt;&lt;font size=&quot;3&quot;&gt;&lt;br&gt;&lt;/font&gt;&lt;/div&gt;&lt;div&gt;&lt;font size=&quot;3&quot;&gt;Nhập mô tả về món&lt;/font&gt;&lt;/div&gt;" style="html=1;align=center;verticalAlign=top;rounded=1;absoluteArcSize=1;arcSize=10;dashed=0;whiteSpace=wrap;fillColor=#d5e8d4;strokeColor=#82b366;" vertex="1" parent="FRcNBfA6DejPCzFfjj22-3">
          <mxGeometry x="177" y="960" width="160" height="90" as="geometry" />
        </mxCell>
        <mxCell id="FRcNBfA6DejPCzFfjj22-49" value="&lt;div&gt;&lt;br&gt;&lt;/div&gt;&lt;div&gt;&lt;font size=&quot;3&quot;&gt;&lt;br&gt;&lt;/font&gt;&lt;/div&gt;&lt;div&gt;&lt;font size=&quot;3&quot;&gt;Nhập giá tiền&lt;/font&gt;&lt;/div&gt;" style="html=1;align=center;verticalAlign=top;rounded=1;absoluteArcSize=1;arcSize=10;dashed=0;whiteSpace=wrap;fillColor=#d5e8d4;strokeColor=#82b366;" vertex="1" parent="FRcNBfA6DejPCzFfjj22-3">
          <mxGeometry x="177" y="1250" width="160" height="90" as="geometry" />
        </mxCell>
        <mxCell id="FRcNBfA6DejPCzFfjj22-61" value="&lt;div&gt;&lt;br&gt;&lt;/div&gt;&lt;div&gt;&lt;font size=&quot;3&quot;&gt;&lt;br&gt;&lt;/font&gt;&lt;/div&gt;&lt;div&gt;&lt;font size=&quot;3&quot;&gt;Chọn hình ảnh&amp;nbsp;&lt;/font&gt;&lt;/div&gt;" style="html=1;align=center;verticalAlign=top;rounded=1;absoluteArcSize=1;arcSize=10;dashed=0;whiteSpace=wrap;fillColor=#d5e8d4;strokeColor=#82b366;" vertex="1" parent="FRcNBfA6DejPCzFfjj22-3">
          <mxGeometry x="230" y="1660" width="160" height="90" as="geometry" />
        </mxCell>
        <mxCell id="FRcNBfA6DejPCzFfjj22-65" value="&lt;div&gt;&lt;br&gt;&lt;/div&gt;&lt;div&gt;&lt;span style=&quot;font-size: medium; background-color: initial;&quot;&gt;Nhấn nút lưu thông tin&amp;nbsp;&amp;nbsp;&lt;/span&gt;&lt;br&gt;&lt;/div&gt;" style="html=1;align=center;verticalAlign=top;rounded=1;absoluteArcSize=1;arcSize=10;dashed=0;whiteSpace=wrap;fillColor=#d5e8d4;strokeColor=#82b366;" vertex="1" parent="FRcNBfA6DejPCzFfjj22-3">
          <mxGeometry x="150" y="2050" width="160" height="90" as="geometry" />
        </mxCell>
        <mxCell id="FRcNBfA6DejPCzFfjj22-13" style="edgeStyle=orthogonalEdgeStyle;rounded=0;orthogonalLoop=1;jettySize=auto;html=1;exitX=1;exitY=0.5;exitDx=0;exitDy=0;entryX=0;entryY=0.5;entryDx=0;entryDy=0;" edge="1" parent="1" source="FRcNBfA6DejPCzFfjj22-11" target="FRcNBfA6DejPCzFfjj22-12">
          <mxGeometry relative="1" as="geometry" />
        </mxCell>
        <mxCell id="FRcNBfA6DejPCzFfjj22-14" style="edgeStyle=orthogonalEdgeStyle;rounded=0;orthogonalLoop=1;jettySize=auto;html=1;exitX=0.5;exitY=1;exitDx=0;exitDy=0;entryX=0.5;entryY=0;entryDx=0;entryDy=0;" edge="1" parent="1" source="FRcNBfA6DejPCzFfjj22-12" target="FRcNBfA6DejPCzFfjj22-16">
          <mxGeometry relative="1" as="geometry">
            <mxPoint x="30" y="570" as="targetPoint" />
          </mxGeometry>
        </mxCell>
        <mxCell id="FRcNBfA6DejPCzFfjj22-22" style="edgeStyle=orthogonalEdgeStyle;rounded=0;orthogonalLoop=1;jettySize=auto;html=1;exitX=0.5;exitY=1;exitDx=0;exitDy=0;entryX=0;entryY=0.5;entryDx=0;entryDy=0;" edge="1" parent="1" source="FRcNBfA6DejPCzFfjj22-16" target="FRcNBfA6DejPCzFfjj22-21">
          <mxGeometry relative="1" as="geometry">
            <mxPoint x="490" y="750" as="targetPoint" />
          </mxGeometry>
        </mxCell>
        <mxCell id="FRcNBfA6DejPCzFfjj22-25" style="edgeStyle=orthogonalEdgeStyle;rounded=0;orthogonalLoop=1;jettySize=auto;html=1;exitX=0;exitY=0.5;exitDx=0;exitDy=0;entryX=0.5;entryY=0;entryDx=0;entryDy=0;" edge="1" parent="1" source="FRcNBfA6DejPCzFfjj22-15" target="FRcNBfA6DejPCzFfjj22-18">
          <mxGeometry relative="1" as="geometry">
            <mxPoint x="550" y="865" as="targetPoint" />
          </mxGeometry>
        </mxCell>
        <mxCell id="FRcNBfA6DejPCzFfjj22-26" value="&lt;font color=&quot;#ff0000&quot; style=&quot;font-size: 18px;&quot;&gt;Tên món không trùng&lt;/font&gt;" style="edgeLabel;html=1;align=center;verticalAlign=middle;resizable=0;points=[];" connectable="0" vertex="1" parent="FRcNBfA6DejPCzFfjj22-25">
          <mxGeometry x="-0.0007" y="-2" relative="1" as="geometry">
            <mxPoint as="offset" />
          </mxGeometry>
        </mxCell>
        <mxCell id="FRcNBfA6DejPCzFfjj22-34" style="edgeStyle=orthogonalEdgeStyle;rounded=0;orthogonalLoop=1;jettySize=auto;html=1;exitX=0.5;exitY=1;exitDx=0;exitDy=0;entryX=0;entryY=0.5;entryDx=0;entryDy=0;" edge="1" parent="1" source="FRcNBfA6DejPCzFfjj22-18" target="FRcNBfA6DejPCzFfjj22-35">
          <mxGeometry relative="1" as="geometry">
            <mxPoint x="-270" y="980" as="targetPoint" />
          </mxGeometry>
        </mxCell>
        <mxCell id="FRcNBfA6DejPCzFfjj22-41" style="edgeStyle=orthogonalEdgeStyle;rounded=0;orthogonalLoop=1;jettySize=auto;html=1;exitX=0;exitY=0.5;exitDx=0;exitDy=0;entryX=0.5;entryY=0;entryDx=0;entryDy=0;" edge="1" parent="1" source="FRcNBfA6DejPCzFfjj22-36" target="FRcNBfA6DejPCzFfjj22-47">
          <mxGeometry relative="1" as="geometry">
            <mxPoint x="-400" y="1230" as="targetPoint" />
          </mxGeometry>
        </mxCell>
        <mxCell id="FRcNBfA6DejPCzFfjj22-43" value="&lt;font color=&quot;#ff0000&quot; style=&quot;font-size: 18px;&quot;&gt;Số lượng món &amp;gt;= 0&lt;/font&gt;" style="edgeLabel;html=1;align=center;verticalAlign=middle;resizable=0;points=[];" connectable="0" vertex="1" parent="FRcNBfA6DejPCzFfjj22-41">
          <mxGeometry x="0.2141" y="5" relative="1" as="geometry">
            <mxPoint as="offset" />
          </mxGeometry>
        </mxCell>
        <mxCell id="FRcNBfA6DejPCzFfjj22-50" style="edgeStyle=orthogonalEdgeStyle;rounded=0;orthogonalLoop=1;jettySize=auto;html=1;exitX=1;exitY=0.5;exitDx=0;exitDy=0;entryX=0;entryY=0.5;entryDx=0;entryDy=0;" edge="1" parent="1" source="FRcNBfA6DejPCzFfjj22-49" target="FRcNBfA6DejPCzFfjj22-51">
          <mxGeometry relative="1" as="geometry">
            <mxPoint x="560" y="1610" as="targetPoint" />
          </mxGeometry>
        </mxCell>
        <mxCell id="FRcNBfA6DejPCzFfjj22-59" style="edgeStyle=orthogonalEdgeStyle;rounded=0;orthogonalLoop=1;jettySize=auto;html=1;exitX=0;exitY=0.5;exitDx=0;exitDy=0;entryX=0.5;entryY=0;entryDx=0;entryDy=0;" edge="1" parent="1" source="FRcNBfA6DejPCzFfjj22-52" target="FRcNBfA6DejPCzFfjj22-61">
          <mxGeometry relative="1" as="geometry">
            <mxPoint x="-180" y="1840" as="targetPoint" />
          </mxGeometry>
        </mxCell>
        <mxCell id="FRcNBfA6DejPCzFfjj22-60" value="&lt;font style=&quot;font-size: 18px;&quot; color=&quot;#ff0000&quot;&gt;Giá &amp;gt; 0&lt;/font&gt;" style="edgeLabel;html=1;align=center;verticalAlign=middle;resizable=0;points=[];" connectable="0" vertex="1" parent="FRcNBfA6DejPCzFfjj22-59">
          <mxGeometry x="-0.6219" y="-3" relative="1" as="geometry">
            <mxPoint x="-1" as="offset" />
          </mxGeometry>
        </mxCell>
        <mxCell id="FRcNBfA6DejPCzFfjj22-62" style="edgeStyle=orthogonalEdgeStyle;rounded=0;orthogonalLoop=1;jettySize=auto;html=1;exitX=1;exitY=0.5;exitDx=0;exitDy=0;entryX=0;entryY=0.5;entryDx=0;entryDy=0;" edge="1" parent="1" source="FRcNBfA6DejPCzFfjj22-61" target="FRcNBfA6DejPCzFfjj22-63">
          <mxGeometry relative="1" as="geometry">
            <mxPoint x="570" y="1974.666666666667" as="targetPoint" />
          </mxGeometry>
        </mxCell>
        <mxCell id="FRcNBfA6DejPCzFfjj22-64" style="edgeStyle=orthogonalEdgeStyle;rounded=0;orthogonalLoop=1;jettySize=auto;html=1;exitX=0.5;exitY=1;exitDx=0;exitDy=0;entryX=0.5;entryY=0;entryDx=0;entryDy=0;" edge="1" parent="1" source="FRcNBfA6DejPCzFfjj22-63" target="FRcNBfA6DejPCzFfjj22-65">
          <mxGeometry relative="1" as="geometry">
            <mxPoint x="-340" y="2250" as="targetPoint" />
          </mxGeometry>
        </mxCell>
        <mxCell id="FRcNBfA6DejPCzFfjj22-66" style="edgeStyle=orthogonalEdgeStyle;rounded=0;orthogonalLoop=1;jettySize=auto;html=1;exitX=1;exitY=0.5;exitDx=0;exitDy=0;entryX=0;entryY=0.5;entryDx=0;entryDy=0;" edge="1" parent="1" source="FRcNBfA6DejPCzFfjj22-65" target="FRcNBfA6DejPCzFfjj22-68">
          <mxGeometry relative="1" as="geometry">
            <mxPoint x="1320" y="2080" as="targetPoint" />
          </mxGeometry>
        </mxCell>
      </root>
    </mxGraphModel>
  </diagram>
</mxfile>
